<?xml version="1.0" standalone="no"?>
<!DOCTYPE svg PUBLIC "-//W3C//DTD SVG 20010904//EN"
 "http://www.w3.org/TR/2001/REC-SVG-20010904/DTD/svg10.dtd">
<svg version="1.0" xmlns="http://www.w3.org/2000/svg"
 width="512.000000pt" height="512.000000pt" viewBox="0 0 512.000000 512.000000"
 preserveAspectRatio="xMidYMid meet">
<metadata>
Created by potrace 1.11, written by Peter Selinger 2001-2013
</metadata>
<g transform="translate(0.000000,512.000000) scale(0.100000,-0.100000)"
fill="#000000" stroke="none">
<path d="M3248 4445 c-2 -2 -33 -5 -68 -6 -251 -8 -517 -111 -725 -280 -131
-107 -171 -164 -160 -230 11 -65 55 -105 125 -114 40 -5 87 21 151 82 134 130
334 233 504 259 64 10 268 11 320 1 199 -38 363 -119 504 -251 43 -41 151
-170 151 -181 0 -3 11 -23 25 -45 33 -52 82 -176 102 -259 11 -43 17 -116 18
-211 3 -232 7 -238 215 -285 95 -22 249 -137 318 -238 205 -298 134 -688 -161
-886 -90 -61 -173 -89 -312 -107 -65 -8 -101 -28 -125 -67 -41 -66 -13 -158
58 -191 32 -16 93 -16 187 0 280 46 538 246 660 510 61 131 84 251 80 409 -9
365 -239 685 -588 815 l-54 20 -2 51 c-10 454 -281 873 -695 1074 -150 73
-274 107 -441 121 -33 3 -65 7 -72 9 -6 2 -13 2 -15 0z"/>
<path d="M1967 3624 c-1 -1 -36 -5 -77 -8 -200 -18 -425 -108 -596 -238 -207
-156 -348 -359 -430 -620 -12 -39 -20 -49 -42 -54 -303 -65 -558 -256 -700
-524 -87 -164 -124 -324 -118 -512 6 -162 28 -256 98 -408 145 -315 480 -548
828 -576 125 -10 2033 -9 2130 1 98 10 99 10 176 35 370 119 616 457 614 843
0 91 -2 105 -20 192 -57 274 -293 545 -548 629 -56 19 -58 22 -60 86 -20 464
-312 882 -739 1060 -98 41 -245 78 -336 85 -97 8 -177 12 -180 9z"/>
</g>
</svg>
